# xmcd
#
# Track frame offsets: 
#        150
#        16422
#        32145
#        43415
#        56792
#        71532
#        84975
#        96615
#        114592
#        129082
#        143117
#        156212
#
# Disc length: 2258 seconds
#
# Revision: 2
# Processed by: cddbd v1.5.2PL0 Copyright (c) Steve Scherf et al.
# Submitted via: ExactAudioCopy v0.99pb5
#
DISCID=a608d00c
DTITLE=Mickey Gilley - Make It Like The First Time
DYEAR=1993
DGENRE=Country
TTITLE0=Stand By Me
TTITLE1=Fool For Your Love
TTITLE2=That's All That Matters
TTITLE3=Room Full Of Roses
TTITLE4=Put Your Dreams Away
TTITLE5=True Love Ways
TTITLE6=She's Pulling Me Back Again
TTITLE7=You Need A Lady In Your Life
TTITLE8=Make It Like The First Time
TTITLE9=The Last Dance With You
TTITLE10=Object Of My Affection
TTITLE11=Don't The Girls All Get Prettier At Closing Time
EXTD=
EXTT0=
EXTT1=
EXTT2=
EXTT3=
EXTT4=
EXTT5=
EXTT6=
EXTT7=
EXTT8=
EXTT9=
EXTT10=
EXTT11=
PLAYORDER=
